<?xml version="1.0" encoding="UTF-8"?>
<svg xmlns="http://www.w3.org/2000/svg" xmlns:xlink="http://www.w3.org/1999/xlink" width="720pt" height="371pt" viewBox="0 0 720 371" version="1.1">
<defs>
<clipPath id="clip1">
  <path d="M 411 164 L 718.753906 164 L 718.753906 371 L 411 371 Z M 411 164 "/>
</clipPath>
</defs>
<g id="surface1">
<path style="fill-rule:nonzero;fill:rgb(94.901961%,94.901961%,94.901961%);fill-opacity:1;stroke-width:0.79701;stroke-linecap:butt;stroke-linejoin:miter;stroke:rgb(0%,0%,0%);stroke-opacity:1;stroke-miterlimit:10;" d="M 0.00119271 0.00136085 L 85.041076 49.098884 L 113.388706 0.00136085 Z M 0.00119271 0.00136085 " transform="matrix(3.896104,0,0,-3.897059,109.784416,287.595147)"/>
<path style=" stroke:none;fill-rule:nonzero;fill:rgb(0%,0%,0%);fill-opacity:1;" d="M 110.691406 301.582031 C 110.507812 301.097656 110.386719 300.792969 109.777344 300.792969 C 109.167969 300.792969 109.046875 301.035156 108.863281 301.582031 L 100.828125 324.785156 C 100.097656 326.792969 98.578125 327.402344 96.445312 327.402344 L 96.445312 328.621094 C 97.359375 328.558594 99.0625 328.496094 100.402344 328.496094 C 101.621094 328.496094 103.628906 328.558594 104.90625 328.621094 L 104.90625 327.402344 C 102.960938 327.402344 101.984375 326.425781 101.984375 325.453125 C 101.984375 325.332031 102.046875 324.90625 102.046875 324.84375 L 103.875 319.789062 L 113.429688 319.789062 L 115.5 325.695312 C 115.5625 325.878906 115.621094 326.121094 115.621094 326.246094 C 115.621094 327.402344 113.429688 327.402344 112.394531 327.402344 L 112.394531 328.621094 C 113.796875 328.496094 116.535156 328.496094 117.996094 328.496094 C 119.640625 328.496094 121.464844 328.558594 123.050781 328.621094 L 123.050781 327.402344 L 122.378906 327.402344 C 120.066406 327.402344 119.519531 327.15625 119.09375 325.878906 Z M 108.621094 305.90625 L 113.003906 318.574219 L 104.300781 318.574219 Z M 108.621094 305.90625 "/>
<path style=" stroke:none;fill-rule:nonzero;fill:rgb(0%,0%,0%);fill-opacity:1;" d="M 546.441406 314.371094 L 546.441406 304.871094 C 546.441406 303.53125 546.503906 303.289062 548.332031 303.289062 L 553.140625 303.289062 C 556.914062 303.289062 558.253906 306.578125 558.253906 308.648438 C 558.253906 311.144531 556.367188 314.371094 552.042969 314.371094 Z M 555.574219 314.734375 C 559.347656 314.003906 562.027344 311.507812 562.027344 308.648438 C 562.027344 305.296875 558.4375 302.070312 553.382812 302.070312 L 539.199219 302.070312 L 539.199219 303.289062 L 540.113281 303.289062 C 543.09375 303.289062 543.214844 303.714844 543.214844 305.117188 L 543.214844 325.574219 C 543.214844 326.976562 543.09375 327.402344 540.113281 327.402344 L 539.199219 327.402344 L 539.199219 328.621094 L 554.417969 328.621094 C 559.59375 328.621094 563.0625 325.148438 563.0625 321.496094 C 563.0625 318.144531 559.898438 315.222656 555.574219 314.734375 Z M 553.199219 327.402344 L 548.332031 327.402344 C 546.503906 327.402344 546.441406 327.15625 546.441406 325.878906 L 546.441406 315.285156 L 553.75 315.285156 C 557.582031 315.285156 559.226562 318.875 559.226562 321.496094 C 559.226562 324.234375 557.15625 327.402344 553.199219 327.402344 Z M 553.199219 327.402344 "/>
<path style=" stroke:none;fill-rule:nonzero;fill:rgb(0%,0%,0%);fill-opacity:1;" d="M 429.277344 68.488281 C 429.277344 76.527344 435.550781 82.617188 442.792969 82.617188 C 449.125 82.617188 452.898438 77.199219 452.898438 72.691406 C 452.898438 72.324219 452.898438 72.023438 452.410156 72.023438 C 451.984375 72.023438 451.984375 72.265625 451.925781 72.691406 C 451.621094 78.234375 447.480469 81.398438 443.21875 81.398438 C 440.84375 81.398438 433.234375 80.121094 433.234375 68.488281 C 433.234375 56.921875 440.84375 55.582031 443.21875 55.582031 C 447.417969 55.582031 450.890625 59.113281 451.679688 64.777344 C 451.742188 65.324219 451.742188 65.445312 452.289062 65.445312 C 452.898438 65.445312 452.898438 65.324219 452.898438 64.53125 L 452.898438 55.335938 C 452.898438 54.667969 452.898438 54.363281 452.472656 54.363281 C 452.351562 54.363281 452.167969 54.363281 451.863281 54.851562 L 449.914062 57.710938 C 448.515625 56.3125 446.507812 54.363281 442.792969 54.363281 C 435.488281 54.363281 429.277344 60.574219 429.277344 68.488281 Z M 429.277344 68.488281 "/>
<path style=" stroke:none;fill-rule:nonzero;fill:rgb(0%,0%,0%);fill-opacity:1;" d="M 326.605469 310.339844 C 326.605469 304.007812 329.773438 302.363281 331.839844 302.363281 C 332.207031 302.363281 334.640625 302.421875 335.980469 303.824219 C 334.398438 303.945312 334.15625 305.101562 334.15625 305.589844 C 334.15625 306.625 334.886719 307.355469 335.921875 307.355469 C 336.953125 307.355469 337.746094 306.746094 337.746094 305.527344 C 337.746094 302.910156 334.761719 301.386719 331.78125 301.386719 C 326.910156 301.386719 323.378906 305.589844 323.378906 310.398438 C 323.378906 315.394531 327.214844 319.230469 331.71875 319.230469 C 336.894531 319.230469 338.171875 314.539062 338.171875 314.175781 C 338.171875 313.808594 337.746094 313.808594 337.625 313.808594 C 337.320312 313.808594 337.199219 313.929688 337.136719 314.175781 C 336.042969 317.769531 333.484375 318.253906 332.085938 318.253906 C 330.015625 318.253906 326.605469 316.609375 326.605469 310.339844 Z M 326.605469 310.339844 "/>
<path style=" stroke:none;fill-rule:nonzero;fill:rgb(0%,0%,0%);fill-opacity:1;" d="M 271.359375 162.757812 L 271.359375 150.457031 L 265.757812 150.882812 L 265.757812 152.101562 C 268.496094 152.101562 268.800781 152.347656 268.800781 154.292969 L 268.800781 177.433594 L 269.777344 177.433594 C 269.777344 177.371094 270.082031 176.824219 271.175781 174.996094 C 271.722656 175.910156 273.367188 177.859375 276.230469 177.859375 C 280.855469 177.859375 284.875 174.023438 284.875 169.03125 C 284.875 164.097656 281.097656 160.261719 276.65625 160.261719 C 273.609375 160.261719 271.96875 162.089844 271.359375 162.757812 Z M 271.480469 172.988281 L 271.480469 165.011719 C 271.480469 164.28125 271.480469 164.21875 271.90625 163.609375 C 273.429688 161.417969 275.558594 161.113281 276.472656 161.113281 C 278.238281 161.113281 279.636719 162.148438 280.550781 163.609375 C 281.585938 165.195312 281.648438 167.386719 281.648438 169.03125 C 281.648438 170.429688 281.585938 172.746094 280.492188 174.511719 C 279.636719 175.726562 278.175781 177.007812 276.105469 177.007812 C 274.339844 177.007812 272.941406 176.09375 272.027344 174.632812 C 271.480469 173.839844 271.480469 173.71875 271.480469 172.988281 Z M 271.480469 172.988281 "/>
<path style=" stroke:none;fill-rule:nonzero;fill:rgb(0%,0%,0%);fill-opacity:1;" d="M 512.675781 178.226562 C 512.855469 179.75 513.890625 181.394531 515.71875 181.394531 C 516.570312 181.394531 518.945312 180.847656 518.945312 177.679688 L 518.945312 175.488281 L 517.972656 175.488281 L 517.972656 177.679688 C 517.972656 179.933594 516.996094 180.175781 516.570312 180.175781 C 515.292969 180.175781 515.109375 178.410156 515.109375 178.226562 L 515.109375 170.496094 C 515.109375 168.851562 515.109375 167.328125 513.710938 165.867188 C 512.1875 164.34375 510.238281 163.734375 508.414062 163.734375 C 505.1875 163.734375 502.507812 165.5625 502.507812 168.121094 C 502.507812 169.277344 503.300781 169.945312 504.335938 169.945312 C 505.429688 169.945312 506.101562 169.15625 506.101562 168.179688 C 506.101562 167.695312 505.917969 166.414062 504.089844 166.414062 C 505.1875 165.015625 507.074219 164.589844 508.292969 164.589844 C 510.238281 164.589844 512.429688 166.109375 512.429688 169.582031 L 512.429688 170.980469 C 510.421875 171.105469 507.742188 171.226562 505.308594 172.382812 C 502.386719 173.722656 501.414062 175.730469 501.414062 177.4375 C 501.414062 180.601562 505.1875 181.578125 507.621094 181.578125 C 510.179688 181.578125 511.945312 179.992188 512.675781 178.226562 Z M 512.429688 171.835938 L 512.429688 175.730469 C 512.429688 179.386719 509.628906 180.726562 507.867188 180.726562 C 505.976562 180.726562 504.394531 179.386719 504.394531 177.4375 C 504.394531 175.304688 506.039062 172.078125 512.429688 171.835938 Z M 512.429688 171.835938 "/>
<path style="fill-rule:nonzero;fill:rgb(69.803922%,69.803922%,100%);fill-opacity:1;stroke-width:0.79701;stroke-linecap:butt;stroke-linejoin:miter;stroke:rgb(0%,0%,0%);stroke-opacity:1;stroke-miterlimit:10;" d="M 0.00119271 0.00136085 L 21.259409 0.00136085 C 21.259409 3.731137 20.278862 7.399769 18.412013 10.63037 " transform="matrix(3.896104,0,0,-3.897059,109.784416,287.595147)"/>
<path style=" stroke:none;fill-rule:nonzero;fill:rgb(0%,0%,0%);fill-opacity:1;" d="M 170.386719 270.1875 C 170.386719 264.101562 166.796875 262.210938 163.933594 262.210938 C 158.578125 262.210938 153.464844 267.753906 153.464844 273.234375 C 153.464844 276.886719 155.777344 279.808594 159.796875 279.808594 C 162.230469 279.808594 165.03125 278.898438 167.953125 276.523438 C 168.441406 278.59375 169.71875 279.808594 171.484375 279.808594 C 173.554688 279.808594 174.769531 277.679688 174.769531 277.070312 C 174.769531 276.765625 174.527344 276.644531 174.285156 276.644531 C 174.039062 276.644531 173.917969 276.765625 173.796875 277.070312 C 173.066406 278.957031 171.667969 278.957031 171.605469 278.957031 C 170.386719 278.957031 170.386719 275.914062 170.386719 275 C 170.386719 274.207031 170.386719 274.085938 170.8125 273.660156 C 174.46875 269.03125 175.257812 264.527344 175.257812 264.527344 C 175.257812 264.40625 175.199219 264.101562 174.769531 264.101562 C 174.40625 264.101562 174.40625 264.222656 174.222656 264.953125 C 173.492188 267.386719 172.214844 270.3125 170.386719 272.625 Z M 167.832031 275.546875 C 164.363281 278.53125 161.378906 278.957031 159.855469 278.957031 C 157.542969 278.957031 156.324219 277.191406 156.324219 274.695312 C 156.324219 272.808594 157.359375 268.605469 158.578125 266.65625 C 160.40625 263.796875 162.535156 263.066406 163.875 263.066406 C 167.710938 263.066406 167.710938 268.179688 167.710938 271.164062 C 167.710938 272.625 167.710938 274.878906 167.832031 275.546875 Z M 167.832031 275.546875 "/>
<path style="fill-rule:nonzero;fill:rgb(69.803922%,100%,69.803922%);fill-opacity:1;stroke-width:0.79701;stroke-linecap:butt;stroke-linejoin:miter;stroke:rgb(0%,0%,0%);stroke-opacity:1;stroke-miterlimit:10;" d="M 113.388706 0.00136085 L 99.212885 0.00136085 C 99.212885 5.063271 101.915906 9.743283 106.302299 12.274238 " transform="matrix(3.896104,0,0,-3.897059,109.784416,287.595147)"/>
<path style=" stroke:none;fill-rule:nonzero;fill:rgb(0%,0%,0%);fill-opacity:1;" d="M 528.410156 255.867188 C 528.410156 252.941406 526.28125 250.566406 523.113281 250.566406 C 520.863281 250.566406 519.765625 251.175781 518.425781 252.152344 C 516.296875 253.734375 514.164062 257.511719 513.433594 260.433594 L 507.226562 285.09375 C 507.226562 285.277344 507.40625 285.519531 507.710938 285.519531 C 508.015625 285.519531 508.136719 285.398438 508.136719 285.335938 L 510.878906 274.558594 C 511.609375 276.933594 513.3125 278.335938 516.175781 278.335938 C 518.976562 278.335938 521.898438 276.996094 523.664062 275.289062 C 525.550781 273.523438 526.765625 271.027344 526.765625 268.164062 C 526.765625 265.363281 525.304688 263.292969 523.90625 262.382812 C 526.15625 261.042969 528.410156 258.667969 528.410156 255.867188 Z M 521.410156 262.320312 C 520.921875 262.503906 520.496094 262.5625 519.523438 262.5625 C 518.976562 262.5625 518.246094 262.625 517.816406 262.441406 C 517.941406 262.015625 519.339844 262.136719 519.765625 262.136719 C 520.558594 262.136719 520.921875 262.136719 521.410156 262.320312 Z M 526.21875 254.953125 C 526.21875 257.691406 524.757812 260.492188 522.75 261.710938 C 521.652344 261.285156 520.921875 261.222656 519.765625 261.222656 C 518.914062 261.222656 516.722656 261.164062 516.722656 262.441406 C 516.722656 263.539062 518.730469 263.417969 519.402344 263.417969 C 520.863281 263.417969 521.46875 263.417969 522.628906 262.929688 C 524.089844 264.328125 524.269531 265.546875 524.332031 267.3125 C 524.394531 269.566406 523.480469 272.488281 522.382812 274.011719 C 520.863281 276.082031 518.246094 277.480469 516.050781 277.480469 C 513.070312 277.480469 511.609375 275.230469 511.609375 272.488281 C 511.609375 272.125 511.609375 271.515625 511.792969 270.785156 L 514.289062 260.980469 C 515.140625 257.632812 517.941406 251.421875 522.628906 251.421875 C 524.878906 251.421875 526.21875 252.636719 526.21875 254.953125 Z M 526.21875 254.953125 "/>
<path style="fill-rule:nonzero;fill:rgb(100%,69.803922%,69.803922%);fill-opacity:1;stroke-width:0.79701;stroke-linecap:butt;stroke-linejoin:miter;stroke:rgb(0%,0%,0%);stroke-opacity:1;stroke-miterlimit:10;" d="M 85.041076 49.098884 L 72.767195 42.013212 C 76.681362 35.231255 85.348875 32.910795 92.126479 36.825005 " transform="matrix(3.896104,0,0,-3.897059,109.784416,287.595147)"/>
<path style=" stroke:none;fill-rule:nonzero;fill:rgb(0%,0%,0%);fill-opacity:1;" d="M 420.519531 123.125 C 422.042969 118.679688 426.300781 118.621094 426.730469 118.621094 C 432.574219 118.621094 433 125.441406 433 128.484375 C 433 130.859375 432.816406 131.53125 432.511719 132.320312 C 431.660156 135.121094 430.503906 139.628906 430.503906 140.664062 C 430.503906 141.089844 430.6875 141.332031 430.988281 141.332031 C 431.539062 141.332031 431.84375 140.480469 432.269531 139.019531 C 433.179688 135.730469 433.546875 133.539062 433.667969 132.320312 C 433.789062 131.835938 433.851562 131.347656 434.035156 130.800781 C 435.25 126.960938 437.746094 121.179688 439.269531 118.132812 C 439.574219 117.644531 440 116.792969 440 116.609375 C 440 116.246094 439.632812 116.246094 439.574219 116.246094 C 439.453125 116.246094 439.207031 116.246094 439.085938 116.488281 C 437.078125 120.203125 435.496094 124.101562 433.972656 127.996094 C 433.910156 126.839844 433.910156 123.855469 432.390625 120.082031 C 431.417969 117.707031 429.894531 115.820312 427.214844 115.820312 C 422.34375 115.820312 419.605469 121.726562 419.605469 122.945312 C 419.605469 123.308594 419.972656 123.308594 420.398438 123.308594 Z M 420.519531 123.125 "/>
<path style=" stroke:none;fill-rule:nonzero;fill:rgb(69.803922%,69.803922%,100%);fill-opacity:1;" d="M 551.558594 287.589844 L 606.773438 287.589844 C 606.773438 277.910156 604.214844 268.378906 599.375 259.976562 "/>
<path style="fill:none;stroke-width:0.79701;stroke-linecap:butt;stroke-linejoin:miter;stroke:rgb(0%,0%,0%);stroke-opacity:1;stroke-miterlimit:10;" d="M 127.560516 0.00136085 C 127.560516 2.485205 126.90381 4.93096 125.661583 7.087033 " transform="matrix(3.896104,0,0,-3.897059,109.784416,287.595147)"/>
<path style=" stroke:none;fill-rule:nonzero;fill:rgb(100%,69.803922%,69.803922%);fill-opacity:1;" d="M 551.558594 287.589844 L 599.375 259.976562 C 584.125 233.566406 550.355469 224.507812 523.949219 239.761719 "/>
<path style="fill:none;stroke-width:0.79701;stroke-linecap:butt;stroke-linejoin:miter;stroke:rgb(0%,0%,0%);stroke-opacity:1;stroke-miterlimit:10;" d="M 125.661583 7.087033 C 121.747417 13.863979 113.079904 16.188448 106.302299 12.274238 " transform="matrix(3.896104,0,0,-3.897059,109.784416,287.595147)"/>
<g clip-path="url(#clip1)" clip-rule="nonzero">
<path style="fill:none;stroke-width:0.79701;stroke-linecap:butt;stroke-linejoin:miter;stroke:rgb(100%,0%,0%);stroke-opacity:1;stroke-dasharray:2.98883,2.98883;stroke-miterlimit:10;" d="M 88.724643 -14.174995 L 148.255268 20.19688 " transform="matrix(3.896104,0,0,-3.897059,109.784416,287.595147)"/>
</g>
<path style="fill:none;stroke-width:0.79701;stroke-linecap:butt;stroke-linejoin:miter;stroke:rgb(100%,0%,0%);stroke-opacity:1;stroke-dasharray:2.98883,2.98883;stroke-miterlimit:10;" d="M -17.009992 0.00136085 L 150.240424 0.00136085 " transform="matrix(3.896104,0,0,-3.897059,109.784416,287.595147)"/>
<path style="fill:none;stroke-width:0.79701;stroke-linecap:butt;stroke-linejoin:miter;stroke:rgb(0%,0%,0%);stroke-opacity:1;stroke-miterlimit:10;" d="M 0.00119271 0.00136085 L 85.041076 49.098884 L 113.388706 0.00136085 L 0.00119271 0.00136085 " transform="matrix(3.896104,0,0,-3.897059,109.784416,287.595147)"/>
<path style="fill:none;stroke-width:0.79701;stroke-linecap:butt;stroke-linejoin:miter;stroke:rgb(0%,0%,0%);stroke-opacity:1;stroke-dasharray:2.98883,2.98883;stroke-miterlimit:10;" d="M 13.607534 7.856844 L -22.111242 -12.764677 " transform="matrix(3.896104,0,0,-3.897059,109.784416,287.595147)"/>
<path style="fill:none;stroke-width:0.79701;stroke-linecap:butt;stroke-linejoin:miter;stroke:rgb(0%,0%,0%);stroke-opacity:1;stroke-dasharray:2.98883,2.98883;stroke-miterlimit:10;" d="M 40.822221 23.567811 L 112.251753 64.809851 " transform="matrix(3.896104,0,0,-3.897059,109.784416,287.595147)"/>
</g>
</svg>
